<svg width="1632" height="338" viewBox="0 0 1632 338" fill="none" xmlns="http://www.w3.org/2000/svg">
<path fill-rule="evenodd" clip-rule="evenodd" d="M0 0H270.083L430 159.1V338H85.2893V271.531L69.6529 255.975H0V0ZM85.2814 82.0244H330.488L343.281 94.7527V241.125L328.355 255.974H97.3642L85.2814 243.953V82.0244Z" fill="#D1D1D1"/>
<path d="M506.938 118.312H526.75L562.25 153.938L597.75 118.312H617.562V216H597.75V145.75L562.25 179.938L526.75 145.75V216H506.938V118.312ZM639.562 192.75C639.562 189.208 640.333 185.979 641.875 183.062C643.417 180.146 645.729 177.646 648.812 175.562C651.896 173.438 655.729 171.812 660.312 170.688C664.938 169.521 670.312 168.938 676.438 168.938C680.979 168.938 685.75 169.271 690.75 169.938C695.792 170.604 700.979 171.625 706.312 173C706.104 170.667 705.396 168.521 704.188 166.562C702.979 164.562 701.292 162.854 699.125 161.438C697 159.979 694.417 158.854 691.375 158.062C688.375 157.271 684.958 156.875 681.125 156.875C679.042 156.875 676.75 157 674.25 157.25C671.75 157.5 669.167 157.875 666.5 158.375C663.833 158.875 661.188 159.5 658.562 160.25C655.979 161 653.562 161.896 651.312 162.938L645.688 147.75C648.479 146.75 651.458 145.833 654.625 145C657.833 144.167 661.104 143.458 664.438 142.875C667.771 142.25 671.104 141.771 674.438 141.438C677.771 141.104 681 140.938 684.125 140.938C697.917 140.938 708.167 144.458 714.875 151.5C721.583 158.542 724.938 169.333 724.938 183.875V216H706.438V209.062C704.521 210.188 702.417 211.25 700.125 212.25C697.875 213.25 695.417 214.125 692.75 214.875C690.083 215.625 687.208 216.208 684.125 216.625C681.083 217.083 677.854 217.312 674.438 217.312C668.688 217.312 663.625 216.688 659.25 215.438C654.917 214.188 651.292 212.458 648.375 210.25C645.458 208.042 643.25 205.458 641.75 202.5C640.292 199.5 639.562 196.25 639.562 192.75ZM659.062 192.125C659.062 193.333 659.375 194.5 660 195.625C660.625 196.708 661.625 197.688 663 198.562C664.375 199.396 666.125 200.083 668.25 200.625C670.417 201.125 673.021 201.375 676.062 201.375C679.312 201.375 682.458 201.083 685.5 200.5C688.542 199.917 691.375 199.146 694 198.188C696.625 197.229 699 196.125 701.125 194.875C703.25 193.625 705.021 192.333 706.438 191V187.75C703.604 186.958 700.792 186.292 698 185.75C695.25 185.208 692.604 184.792 690.062 184.5C687.562 184.167 685.188 183.938 682.938 183.812C680.729 183.688 678.792 183.625 677.125 183.625C673.667 183.625 670.792 183.854 668.5 184.312C666.208 184.771 664.354 185.396 662.938 186.188C661.521 186.938 660.521 187.833 659.938 188.875C659.354 189.917 659.062 191 659.062 192.125ZM749.938 112.312H768.438V216H749.938V112.312ZM801.938 132.188C800.104 132.188 798.438 131.938 796.938 131.438C795.479 130.896 794.229 130.188 793.188 129.312C792.146 128.396 791.333 127.354 790.75 126.188C790.208 124.979 789.938 123.708 789.938 122.375C789.938 121 790.208 119.729 790.75 118.562C791.333 117.354 792.146 116.312 793.188 115.438C794.229 114.562 795.479 113.875 796.938 113.375C798.438 112.833 800.104 112.562 801.938 112.562C803.812 112.562 805.479 112.833 806.938 113.375C808.438 113.875 809.708 114.562 810.75 115.438C811.792 116.312 812.583 117.354 813.125 118.562C813.708 119.729 814 121 814 122.375C814 123.708 813.708 124.979 813.125 126.188C812.583 127.354 811.792 128.396 810.75 129.312C809.708 130.188 808.438 130.896 806.938 131.438C805.479 131.938 803.812 132.188 801.938 132.188ZM792.688 142.25H811.188V216H792.688V142.25ZM835 112.312H853.5V173.562L888 142.25H916.312L877.75 176.75L918.75 216H891L863.562 189.438L853.5 198.438V216H835V112.312ZM975.75 118.312H995.562V168.875L1047.12 118.312H1072.5L1024.38 164.938L1072.5 216H1046.12L1010.12 178.75L995.562 192.812V216H975.75V118.312ZM1079.94 112.375H1098.44V147.875C1102.31 145.75 1106.62 144.062 1111.38 142.812C1116.17 141.562 1121.19 140.938 1126.44 140.938C1132.52 140.938 1137.98 141.833 1142.81 143.625C1147.69 145.417 1151.81 148 1155.19 151.375C1158.56 154.708 1161.15 158.771 1162.94 163.562C1164.77 168.354 1165.69 173.75 1165.69 179.75V216H1147.25V180.5C1147.25 177 1146.69 173.812 1145.56 170.938C1144.44 168.021 1142.79 165.521 1140.62 163.438C1138.46 161.354 1135.81 159.75 1132.69 158.625C1129.6 157.458 1126.1 156.875 1122.19 156.875C1117.48 156.875 1113.1 157.625 1109.06 159.125C1105.02 160.625 1101.48 162.521 1098.44 164.812V216H1079.94V112.375ZM1186.44 142.188H1204.88V178.188C1204.88 181.604 1205.25 184.729 1206 187.562C1206.75 190.354 1208.02 192.75 1209.81 194.75C1211.65 196.75 1214.06 198.312 1217.06 199.438C1220.1 200.521 1223.88 201.062 1228.38 201.062C1230.5 201.062 1232.65 200.833 1234.81 200.375C1237.02 199.917 1239.12 199.292 1241.12 198.5C1243.12 197.667 1244.98 196.688 1246.69 195.562C1248.44 194.438 1249.94 193.208 1251.19 191.875V142.188H1269.69V216H1251.19V209.688C1246.65 212.396 1242.08 214.333 1237.5 215.5C1232.92 216.667 1228.56 217.25 1224.44 217.25C1217.69 217.25 1211.9 216.438 1207.06 214.812C1202.27 213.188 1198.33 210.833 1195.25 207.75C1192.21 204.625 1189.98 200.812 1188.56 196.312C1187.15 191.771 1186.44 186.604 1186.44 180.812V142.188ZM1292.69 112.312H1311.19V149.188C1312.81 148.062 1314.73 147 1316.94 146C1319.15 145 1321.52 144.125 1324.06 143.375C1326.6 142.625 1329.23 142.042 1331.94 141.625C1334.65 141.167 1337.35 140.938 1340.06 140.938C1346.31 140.938 1352.04 141.854 1357.25 143.688C1362.5 145.521 1367 148.104 1370.75 151.438C1374.5 154.771 1377.42 158.771 1379.5 163.438C1381.62 168.062 1382.69 173.188 1382.69 178.812C1382.69 184.688 1381.58 190 1379.38 194.75C1377.17 199.458 1374.1 203.5 1370.19 206.875C1366.31 210.208 1361.69 212.792 1356.31 214.625C1350.98 216.417 1345.19 217.312 1338.94 217.312C1336.27 217.312 1333.62 217.146 1331 216.812C1328.42 216.479 1325.92 216.021 1323.5 215.438C1321.12 214.854 1318.88 214.167 1316.75 213.375C1314.67 212.542 1312.81 211.646 1311.19 210.688V216H1292.69V112.312ZM1311.19 192.812C1313.06 194.312 1315.04 195.583 1317.12 196.625C1319.21 197.667 1321.33 198.521 1323.5 199.188C1325.67 199.854 1327.85 200.354 1330.06 200.688C1332.27 200.979 1334.42 201.125 1336.5 201.125C1340.75 201.125 1344.52 200.562 1347.81 199.438C1351.15 198.271 1353.94 196.688 1356.19 194.688C1358.48 192.688 1360.23 190.333 1361.44 187.625C1362.65 184.917 1363.25 181.979 1363.25 178.812C1363.25 175.854 1362.65 173.062 1361.44 170.438C1360.27 167.812 1358.56 165.521 1356.31 163.562C1354.1 161.562 1351.42 160 1348.25 158.875C1345.12 157.708 1341.6 157.125 1337.69 157.125C1335.19 157.125 1332.69 157.375 1330.19 157.875C1327.69 158.333 1325.27 159 1322.94 159.875C1320.65 160.75 1318.48 161.812 1316.44 163.062C1314.44 164.312 1312.69 165.708 1311.19 167.25V192.812ZM1409.56 132.188C1407.73 132.188 1406.06 131.938 1404.56 131.438C1403.1 130.896 1401.85 130.188 1400.81 129.312C1399.77 128.396 1398.96 127.354 1398.38 126.188C1397.83 124.979 1397.56 123.708 1397.56 122.375C1397.56 121 1397.83 119.729 1398.38 118.562C1398.96 117.354 1399.77 116.312 1400.81 115.438C1401.85 114.562 1403.1 113.875 1404.56 113.375C1406.06 112.833 1407.73 112.562 1409.56 112.562C1411.44 112.562 1413.1 112.833 1414.56 113.375C1416.06 113.875 1417.33 114.562 1418.38 115.438C1419.42 116.312 1420.21 117.354 1420.75 118.562C1421.33 119.729 1421.62 121 1421.62 122.375C1421.62 123.708 1421.33 124.979 1420.75 126.188C1420.21 127.354 1419.42 128.396 1418.38 129.312C1417.33 130.188 1416.06 130.896 1414.56 131.438C1413.1 131.938 1411.44 132.188 1409.56 132.188ZM1400.31 142.25H1418.81V216H1400.31V142.25ZM1439.06 178.875C1439.06 173.875 1440.08 169.104 1442.12 164.562C1444.17 159.979 1447.1 155.938 1450.94 152.438C1454.77 148.938 1459.46 146.146 1465 144.062C1470.58 141.979 1476.92 140.938 1484 140.938C1491.04 140.938 1497.38 142 1503 144.125C1508.67 146.208 1513.46 149.083 1517.38 152.75C1521.33 156.417 1524.35 160.729 1526.44 165.688C1528.56 170.646 1529.62 175.958 1529.62 181.625C1529.62 182.333 1529.6 183.104 1529.56 183.938C1529.56 184.729 1529.52 185.458 1529.44 186.125H1459.69C1460.48 188.333 1461.75 190.354 1463.5 192.188C1465.29 194.021 1467.52 195.604 1470.19 196.938C1472.85 198.271 1475.94 199.312 1479.44 200.062C1482.94 200.771 1486.81 201.125 1491.06 201.125C1495.31 201.125 1499.54 200.688 1503.75 199.812C1507.96 198.896 1511.98 197.75 1515.81 196.375L1522.06 210.5C1519.65 211.625 1517.19 212.625 1514.69 213.5C1512.23 214.333 1509.65 215.042 1506.94 215.625C1504.27 216.167 1501.46 216.583 1498.5 216.875C1495.58 217.167 1492.5 217.312 1489.25 217.312C1480.96 217.312 1473.69 216.312 1467.44 214.312C1461.19 212.312 1455.96 209.583 1451.75 206.125C1447.54 202.667 1444.38 198.604 1442.25 193.938C1440.12 189.271 1439.06 184.25 1439.06 178.875ZM1510 171.688C1509.33 169.646 1508.29 167.75 1506.88 166C1505.5 164.208 1503.77 162.667 1501.69 161.375C1499.6 160.042 1497.19 159 1494.44 158.25C1491.69 157.5 1488.67 157.125 1485.38 157.125C1481.88 157.125 1478.69 157.521 1475.81 158.312C1472.94 159.104 1470.42 160.167 1468.25 161.5C1466.08 162.833 1464.27 164.375 1462.81 166.125C1461.4 167.875 1460.35 169.729 1459.69 171.688H1510ZM1539.38 142.188H1560.81L1580 186.562L1585 199L1590 186.562L1609.19 142.188H1630.62L1595.69 216H1574.31L1539.38 142.188Z" fill="#D1D1D1"/>
</svg>
